<svg version="1.1" xmlns="http://www.w3.org/2000/svg" xmlns:xlink="http://www.w3.org/1999/xlink" >
	<symbol id='arrow' viewBox='0 0 94 100'>
		<path d="M 00,00 47,50 00,100" stroke-width="12" stroke="#fff" fill='none'/>
	</symbol>
	<symbol id="icon-facebook" viewBox="0 0 64 64">
		<path d="M32,7.174C18.311,7.174,7.174,18.311,7.174,32c0,13.689,11.137,24.826,24.826,24.826c13.689,0,24.826-11.137,24.826-24.826
		C56.826,18.311,45.689,7.174,32,7.174z M38.174,32.874h-4.039c0,6.453,0,14.398,0,14.398h-5.985c0,0,0-7.868,0-14.398h-2.845v-5.088
		h2.845v-3.291c0-2.357,1.12-6.04,6.04-6.04l4.433,0.017v4.939c0,0-2.695,0-3.219,0c-0.524,0-1.268,0.262-1.268,1.386v2.99h4.56
		L38.174,32.874z"/>
	</symbol>
	<symbol id="icon-instagram" viewBox="0 0 64 64">
		<path d="M31.999,36.97c2.739,0,4.972-2.229,4.972-4.97c0-1.082-0.354-2.081-0.941-2.897C35.126,27.851,33.658,27.03,32,27.03
			c-1.659,0-3.126,0.82-4.031,2.072c-0.588,0.816-0.939,1.815-0.94,2.897C27.028,34.74,29.259,36.97,31.999,36.97z"/>
		<polygon points="42.852,25.92 42.852,21.754 42.852,21.134 42.228,21.136 38.064,21.149 38.081,25.936 	"/>
		<path d="M32,7.174C18.311,7.174,7.174,18.311,7.174,32c0,13.689,11.137,24.826,24.826,24.826c13.689,0,24.826-11.137,24.826-24.826
			C56.826,18.311,45.689,7.174,32,7.174z M46.119,29.103v11.56c0,3.011-2.448,5.458-5.457,5.458H23.338
			c-3.01,0-5.457-2.447-5.457-5.458v-11.56v-5.764c0-3.01,2.447-5.457,5.457-5.457h17.323c3.01,0,5.458,2.447,5.458,5.457V29.103z"/>
		<path d="M39.722,32c0,4.257-3.463,7.723-7.722,7.723S24.278,36.257,24.278,32c0-1.024,0.204-2.003,0.568-2.897h-4.215v11.56
			c0,1.494,1.213,2.704,2.706,2.704h17.323c1.493,0,2.706-1.21,2.706-2.704v-11.56h-4.216C39.515,29.997,39.722,30.976,39.722,32z"/>
	</symbol>
	<symbol id="icon-linkedin" viewBox="0 0 64 64">
		<path d="M36.523,28.472c-2.124,0-3.075,1.168-3.606,1.988v-1.704h-4.002c0.052,1.128,0,12.041,0,12.041h4.002v-6.726
			c0-0.36,0.025-0.72,0.131-0.976c0.29-0.72,0.948-1.465,2.054-1.465c1.448,0,2.027,1.105,2.027,2.723v6.443h4.002h0.001v-6.906
			C41.132,30.193,39.157,28.472,36.523,28.472z M32.916,30.502H32.89c0.009-0.014,0.019-0.027,0.026-0.041V30.502z"/>
		<rect x="22.697" y="28.756" width="4.002" height="12.041"/>
		<path d="M32,7.174C18.311,7.174,7.174,18.311,7.174,32c0,13.689,11.137,24.826,24.826,24.826c13.689,0,24.826-11.137,24.826-24.826
			C56.826,18.311,45.689,7.174,32,7.174z M45.165,43.229c0,1.054-0.876,1.91-1.959,1.91H20.625c-1.08,0-1.957-0.855-1.957-1.91
			V20.385c0-1.055,0.877-1.91,1.957-1.91h22.581c1.082,0,1.959,0.856,1.959,1.91V43.229z"/>
		<path d="M24.725,22.951c-1.368,0-2.264,0.898-2.264,2.08c0,1.155,0.869,2.08,2.211,2.08h0.026c1.396,0,2.265-0.925,2.265-2.08
			C26.936,23.85,26.095,22.951,24.725,22.951z"/>
	</symbol>
	<symbol id="icon-twitter" viewBox="0 0 64 64">
		<path d="M32,7.174C18.311,7.174,7.174,18.311,7.174,32c0,13.689,11.137,24.826,24.826,24.826c13.689,0,24.826-11.137,24.826-24.826
			C56.826,18.311,45.689,7.174,32,7.174z M43.075,26.318c0.011,0.246,0.017,0.494,0.017,0.742c0,7.551-5.747,16.257-16.259,16.257
			c-3.227,0-6.231-0.945-8.759-2.567c0.447,0.053,0.902,0.08,1.363,0.08c2.678,0,5.141-0.914,7.097-2.446
			c-2.5-0.046-4.611-1.698-5.338-3.969c0.348,0.068,0.707,0.103,1.074,0.103c0.521,0,1.027-0.07,1.506-0.2
			c-2.614-0.525-4.583-2.834-4.583-5.602c0-0.024,0-0.049,0.001-0.072c0.77,0.427,1.651,0.685,2.587,0.714
			c-1.532-1.023-2.541-2.773-2.541-4.755c0-1.048,0.281-2.03,0.773-2.874c2.817,3.458,7.029,5.732,11.777,5.972
			c-0.098-0.419-0.147-0.854-0.147-1.303c0-3.155,2.558-5.714,5.714-5.714c1.643,0,3.128,0.694,4.17,1.804
			c1.303-0.256,2.525-0.73,3.63-1.387c-0.428,1.335-1.333,2.454-2.514,3.162c1.157-0.138,2.259-0.444,3.282-0.899
			C45.161,24.508,44.191,25.515,43.075,26.318z"/>
	</symbol>
	<symbol id="icon-vimeo" viewBox="-10 -10 84 84">
		<path d="M32 0c-17.673 0-32 14.327-32 32s14.327 32 32 32 32-14.327 32-32-14.327-32-32-32zM50.804 27.383c-2.122 11.956-13.982
		22.081-17.549 24.394-3.568 2.313-6.822-0.926-8.002-3.375-1.351-2.794-5.401-17.934-6.46-19.189-1.060-1.252-4.242 1.255-4.242
		1.255l-1.543-2.023c0 0 6.461-7.715 11.377-8.68 5.213-1.023 5.205 8.004 6.459 13.015 1.212 4.848 2.027 7.622 3.086 7.622 1.061
		0 3.086-2.704 5.303-6.848 2.221-4.148-0.096-7.813-4.436-5.206 1.737-10.416 18.129-12.92 16.007-0.966z" ></path>
	</symbol>
	<symbol id="circle" vievBox="0 0 124 124" >
		<circle cx="62" cy="62" r="60" class="b-svg__circle"> </circle>
		<circle cx="62" cy="62" r="60" class="b-svg__sector"> </circle>
	</symbol>
	<symbol id="circle-arrow" viewBox="0 0 50 50">
		<ellipse cx="25" cy="25" rx="24" ry="24" class="b-svg__circle" />
		<path d="M 18,24 25,30 32,24" stroke-width="2" stroke="#fff" fill='none'/>
	</symbol>
</svg>