<svg version="1.1" xmlns="http://www.w3.org/2000/svg" xmlns:xlink="http://www.w3.org/1999/xlink" >
    <symbol id="icon-letter" viewBox="0 0 612 612">
        <path d="M612.074,132.141v-2.38c0-8.849-4.016-19.26-11.229-26.473l-0.818-0.818c0,0-0.818,0-0.818-0.818
        		c-1.636-1.636-3.198-2.38-4.833-4.016c-0.818,0-0.818-0.818-1.636-0.818c-1.636-0.818-4.016-1.636-5.652-2.38
        		c-0.818,0-0.818-0.818-1.636-0.818c-2.38-0.818-4.833-1.636-7.213-1.636c-0.818,0-0.818,0-1.636,0c-2.38,0-5.651-0.818-8.849-0.818
        		H43.427c-3.198,0-6.395,0-9.667,0.818c-0.818,0-1.636,0-2.38,0.818c-2.38,0.818-4.834,0.818-6.395,1.636
        		c-0.818,0-0.818,0.818-1.636,0.818c-1.636,0.818-4.016,1.636-5.652,2.38l-0.818,0.818c-1.636,0.818-3.198,2.38-4.834,3.198
        		c-0.818,0.818-1.636,1.636-2.38,2.38C4.016,110.428,0.818,117.715,0,125.746c0,0.818,0,0.818,0,1.636v357.384
        		c0,0.818,0,0.818,0,1.636c1.636,11.229,7.213,20.896,15.244,26.473c7.213,4.833,16.062,8.031,26.473,8.031H569.39c0,0,0,0,0.818,0
        		l0,0c2.38,0,5.651,0,8.031-0.818c0.818,0,0.818,0,1.636,0c2.38-0.818,4.834-0.818,6.395-1.636h0.818
        		c17.698-6.395,24.911-21.714,24.911-36.14v-2.38v-0.818v-0.818V134.521c0-0.818,0-0.818,0-1.636
        		C612.074,132.959,612.074,132.959,612.074,132.141z M560.69,120.913l-252.98,246.51l-57.854-56.218l0,0L51.459,120.838H560.69
        		V120.913z M29.819,475.099V140.991l187.095,179.882L29.819,475.099z M299.679,491.905H56.292l182.336-149.393l58.597,57.036
        		c2.38,2.38,4.834,3.198,7.213,4.016h0.818c0.818,0,0.818,0,1.636,0l0,0c0.818,0,1.636,0,1.636,0h0.818
        		c2.38-0.818,5.651-1.636,7.213-4.016l55.4-53.838l183.079,146.196H299.679z M582.329,475.843L394.417,324.07L582.329,140.99
        		V475.843z"/>
    </symbol>
    <symbol id="icon-point" viewBox="0 0 790 790">
        <path d="M668.621,223.631C641.349,91.614,529.029,0,397.012,0c-18.585,0-37.07,2.222-55.655,5.454
                C268.227,19.595,206.108,61.11,164.594,123.229c-41.413,62.221-56.766,136.36-41.413,210.5
                c9.798,49.09,29.494,94.947,47.979,133.128c35.959,76.362,82.927,153.834,147.269,245.448
                c14.141,19.596,28.383,39.292,43.635,58.887c0,0,0,0,0,1.111l3.232,4.343l1.111,1.111c7.677,9.798,18.585,14.141,29.494,14.141
                c7.677,0,20.707-3.232,32.726-17.474c43.635-56.766,80.705-112.32,115.654-167.975c39.292-63.231,87.271-147.269,116.765-241.105
                C676.197,317.366,678.419,269.387,668.621,223.631z M621.653,353.425c-28.383,89.493-75.251,170.198-112.32,231.307
                c-33.838,54.544-70.907,107.977-112.32,163.632c0,0,0,1.111-1.111,1.111l-1.111-2.222c0,0,0-1.111-1.111-1.111l0,0
                c-14.141-19.595-28.383-39.292-42.524-58.887c-63.231-89.493-109.088-164.743-144.037-238.883
                c-17.474-35.959-35.959-78.584-44.746-124.34c-13.131-63.231,0-127.674,34.949-179.995s89.493-88.382,151.612-100.401
                c16.363-3.232,31.615-4.343,47.979-4.343c113.432,0,208.379,78.584,232.317,192.015
                C638.016,270.498,634.784,311.911,621.653,353.425z M393.679,146.158c-70.907,0-128.684,57.776-128.684,128.684
                s57.776,128.684,128.684,128.684s128.684-57.776,128.684-128.684S464.586,146.158,393.679,146.158z M393.679,363.223
                c-49.09,0-88.382-39.292-88.382-88.382s39.292-88.382,88.382-88.382s88.382,39.292,88.382,88.382S442.768,363.223,393.679,363.223z
                "/>
    </symbol>
    <symbol id="icon-phone" viewBox="0 0 202 202">
        <path d="M198.048,160.105l-31.286-31.29c-6.231-6.206-16.552-6.016-23.001,0.433l-15.761,15.761
        			c-0.995-0.551-2.026-1.124-3.11-1.732c-9.953-5.515-23.577-13.074-37.914-27.421C72.599,101.48,65.03,87.834,59.5,77.874
        			c-0.587-1.056-1.145-2.072-1.696-3.038l10.579-10.565l5.2-5.207c6.46-6.46,6.639-16.778,0.419-23.001L42.715,4.769
        			c-6.216-6.216-16.541-6.027-23.001,0.433l-8.818,8.868l0.243,0.24c-2.956,3.772-5.429,8.124-7.265,12.816
        			c-1.696,4.466-2.752,8.729-3.235,12.998c-4.13,34.25,11.52,65.55,53.994,108.028c58.711,58.707,106.027,54.273,108.067,54.055
        			c4.449-0.53,8.707-1.593,13.038-3.275c4.652-1.818,9.001-4.284,12.769-7.233l0.193,0.168l8.933-8.747
        			C204.079,176.661,204.265,166.343,198.048,160.105z M190.683,176.164l-3.937,3.93l-1.568,1.507
        			c-2.469,2.387-6.743,5.74-12.984,8.181c-3.543,1.364-7.036,2.24-10.59,2.663c-0.447,0.043-44.95,3.84-100.029-51.235
        			C14.743,94.38,7.238,67.395,10.384,41.259c0.394-3.464,1.263-6.95,2.652-10.593c2.462-6.277,5.812-10.547,8.181-13.02l5.443-5.497
        			c2.623-2.63,6.714-2.831,9.112-0.433l31.286,31.286c2.394,2.401,2.205,6.492-0.422,9.13L45.507,73.24l1.95,3.282
        			c1.084,1.829,2.23,3.879,3.454,6.106c5.812,10.482,13.764,24.83,29.121,40.173c15.317,15.325,29.644,23.27,40.094,29.067
        			c2.258,1.249,4.32,2.398,6.17,3.5l3.289,1.95l21.115-21.122c2.634-2.623,6.739-2.817,9.137-0.426l31.272,31.279
        			C193.5,169.446,193.31,173.537,190.683,176.164z"/>
</svg>